<svg xmlns="http://www.w3.org/2000/svg" viewBox="0 0 16.31 16.27"><defs><style>.cls-1{fill:none;stroke:#707070;stroke-miterlimit:10;}</style></defs><title>shop</title><g id="图层_2" data-name="图层 2"><g id="图层_1-2" data-name="图层 1"><path class="cls-1" d="M.06.5S2.45.79,3,4.28s.22,8.11,2.72,8.16,9.25,0,9.25,0"/><path class="cls-1" d="M6.66,2.11l7.72,1s1.44,0,1.43,1.26a19.12,19.12,0,0,1-.93,4.37c-.16.5-.38,1.05-1.59,1.08s-4.19.08-5.58,0c-.45-.05-1-.19-1.39-1.32,0,0-.62-3.84-.66-5.13C5.65,2.86,5.76,2,6.66,2.11Z"/><ellipse class="cls-1" cx="6.36" cy="14.9" rx="0.75" ry="0.87"/><ellipse class="cls-1" cx="12.18" cy="14.9" rx="0.75" ry="0.87"/></g></g></svg>