<svg xmlns="http://www.w3.org/2000/svg" viewBox="0 0 16.56 17"><defs><style>.cls-1{fill:none;stroke:#707070;stroke-miterlimit:10;}</style></defs><title>shopCart</title><g id="图层_2" data-name="图层 2"><g id="图层_1-2" data-name="图层 1"><path class="cls-1" d="M.06.5S2.49.8,3,4.46,3.23,13,5.77,13s9.39,0,9.39,0"/><path class="cls-1" d="M6.77,2.19l7.84,1s1.46,0,1.45,1.32a20.37,20.37,0,0,1-.94,4.58c-.17.52-.39,1.1-1.62,1.13s-4.26.08-5.67-.06c-.45,0-1.06-.19-1.41-1.37,0,0-.63-4-.66-5.38C5.74,3,5.85,2.1,6.77,2.19Z"/><ellipse class="cls-1" cx="6.46" cy="15.59" rx="0.76" ry="0.91"/><ellipse class="cls-1" cx="12.38" cy="15.59" rx="0.76" ry="0.91"/></g></g></svg>