<svg xmlns="http://www.w3.org/2000/svg" viewBox="0 0 20.56 19.7"><defs><style>.cls-1{fill:none;stroke:#7e8485;stroke-miterlimit:10;}</style></defs><title>shop</title><g id="图层_2" data-name="图层 2"><g id="图层_1-2" data-name="图层 1"><path class="cls-1" d="M.06.5s3,.36,3.68,4.63.28,9.93,3.46,10,11.74,0,11.74,0"/><path class="cls-1" d="M8.44,2.47l9.8,1.16s1.82,0,1.82,1.55a23.37,23.37,0,0,1-1.18,5.35c-.21.61-.49,1.29-2,1.32s-5.32.1-7.09-.07c-.57,0-1.33-.22-1.76-1.61,0,0-.79-4.69-.84-6.28C7.16,3.39,7.29,2.38,8.44,2.47Z"/><ellipse class="cls-1" cx="8.05" cy="18.13" rx="0.95" ry="1.06"/><ellipse class="cls-1" cx="15.45" cy="18.13" rx="0.95" ry="1.06"/></g></g></svg>